<svg width="18" height="30" viewBox="0 0 18 30" fill="none" xmlns="http://www.w3.org/2000/svg">
<path d="M7.57219 7.87549C7.91233 7.87549 8.24553 7.90542 8.56933 7.96281C8.28082 8.19445 8.02891 8.43617 7.81464 8.66532C7.57253 8.92425 7.36457 9.1815 7.19128 9.41604C5.06706 9.60992 3.39425 11.4087 3.39425 13.5877C3.39425 15.8954 5.27053 17.7766 7.57219 17.7766C8.45336 17.7766 9.26616 17.5024 9.93463 17.0378C10.36 16.7484 10.7246 16.3828 11.0133 15.9563C11.1444 15.7666 11.2604 15.5654 11.3592 15.3542C11.5056 15.3682 11.6554 15.3755 11.8085 15.3755C12.2446 15.3755 12.6535 15.3161 13.0342 15.214C12.8344 15.8844 12.513 16.5027 12.092 17.0455L16.0876 21.044L15.0089 22.1255L11.0209 18.1193C10.0638 18.8657 8.87115 19.2999 7.57219 19.2999C4.42734 19.2999 1.875 16.7408 1.875 13.5877C1.875 10.4345 4.42734 7.87549 7.57219 7.87549Z" fill="#767676"/>
<path d="M13.1329 11.0255C13.1329 11.7504 12.5468 12.338 11.8238 12.338C11.1009 12.338 10.5148 11.7504 10.5148 11.0255C10.5148 10.3006 11.1009 9.713 11.8238 9.713C12.5468 9.713 13.1329 10.3006 13.1329 11.0255Z" fill="#767676"/>
<path fill-rule="evenodd" clip-rule="evenodd" d="M11.8085 7.87549C10.4247 7.87549 9.35019 8.66795 8.6332 9.43475C8.273 9.81998 7.99744 10.2045 7.81191 10.4925C7.69291 10.6773 7.58419 10.8668 7.48524 11.063C7.5842 11.2591 7.69291 11.4487 7.81191 11.6335C7.99744 11.9215 8.273 12.306 8.6332 12.6912C9.35019 13.458 10.4247 14.2505 11.8085 14.2505C13.1923 14.2505 14.2668 13.458 14.9838 12.6912C15.344 12.306 15.6196 11.9215 15.8051 11.6335C15.9235 11.4497 16.0354 11.2626 16.125 11.063C16.0354 10.8634 15.9235 10.6763 15.8051 10.4925C15.6196 10.2045 15.344 9.81998 14.9838 9.43475C14.2668 8.66795 13.1923 7.87549 11.8085 7.87549ZM9.85366 12.3073C9.37082 11.8913 9.00529 11.4037 8.78063 11.0623C9.00328 10.72 9.36631 10.2326 9.8481 9.81718C10.3793 9.35921 11.0407 9.00049 11.8085 9.00049C12.5762 9.00049 13.2366 9.35998 13.7674 9.81848C14.2488 10.2344 14.612 10.7219 14.8364 11.0636C14.6138 11.406 14.2507 11.8934 13.7689 12.3088C13.2377 12.7668 12.5763 13.1255 11.8085 13.1255C11.0466 13.1255 10.3862 12.7662 9.85366 12.3073Z" fill="#767676"/>
</svg>
