<svg width="89" height="62" viewBox="0 0 89 62" fill="none" xmlns="http://www.w3.org/2000/svg">
<path d="M2.26234 18.0648C7.66178 11.8535 13.0612 5.65512 15.7932 2.51081ZM2.26234 18.0648C5.18757 14.7014 8.09992 11.3509 15.7932 2.51081ZM2.44275 33.5801C11.7597 22.8586 21.0766 12.137 29.4915 2.45927ZM2.44275 33.5801C8.04837 27.1369 13.654 20.6808 29.4915 2.45927ZM1.75977 50.0748C17.056 32.4848 32.3394 14.8947 43.1898 2.42061ZM1.75977 50.0748C15.6514 34.0956 29.5301 18.1292 43.1898 2.42061ZM7.00457 59.7526C19.0792 45.8738 31.141 31.9822 56.8882 2.36906ZM7.00457 59.7526C23.422 40.8739 39.8265 21.9952 56.8882 2.36906ZM20.7029 59.7139C31.5018 47.2914 42.3007 34.8688 70.5865 2.3304ZM20.7029 59.7139C31.1152 47.7295 41.5404 35.7451 70.5865 2.3304ZM34.4012 59.6624C44.5558 47.9872 54.6975 36.325 83.4343 3.25823ZM34.4012 59.6624C46.9656 45.2166 59.5299 30.7709 83.4343 3.25823ZM48.0996 59.6237C57.5969 48.696 67.0943 37.7811 83.6147 18.7736ZM48.0996 59.6237C58.2928 47.9099 68.4731 36.1961 83.6147 18.7736ZM61.7979 59.5722C69.9293 50.2295 78.0478 40.8868 83.7823 34.2889ZM61.7979 59.5722C66.6819 53.9537 71.5659 48.3352 83.7823 34.2889ZM74.6586 60.5C77.0298 57.7681 79.4009 55.0361 83.1122 50.7836ZM74.6586 60.5C77.7127 56.9949 80.7668 53.4769 83.1122 50.7836ZM17.4169 55.6418C11.9916 50.9254 6.56643 46.2089 1.84997 42.111ZM17.4169 55.6418C13.2674 52.0336 9.11795 48.4254 1.84997 42.111ZM33.8987 56.3119C23.5637 47.33 13.2287 38.3353 1.81131 28.4127ZM33.8987 56.3119C22.1462 46.0929 10.3937 35.8868 1.81131 28.4127ZM49.414 56.1444C30.5868 39.7657 11.7468 23.3998 1.75977 14.7143ZM49.414 56.1444C31.3343 40.4229 13.2416 24.7013 1.75977 14.7143ZM64.9422 55.964C40.8831 35.0621 16.837 14.1602 2.68759 1.86649ZM64.9422 55.964C47.9965 41.2347 31.0508 26.5055 2.68759 1.86649ZM80.4576 55.7964C63.1252 40.7321 45.8058 25.6807 18.2029 1.68608ZM80.4576 55.7964C60.6252 38.5672 40.8058 21.338 18.2029 1.68608ZM88.1895 48.8635C66.5788 30.075 44.9682 11.2865 33.7311 1.51855ZM88.1895 48.8635C73.3056 35.9255 58.4088 22.9746 33.7311 1.51855ZM88.1379 35.1652C77.2102 25.6678 66.2824 16.1576 50.213 2.18865ZM88.1379 35.1652C78.8725 27.0982 69.5942 19.0442 50.213 2.18865ZM88.0992 21.4668C81.4369 15.6808 74.7875 9.89477 65.7283 2.02113ZM88.0992 21.4668C82.1972 16.338 76.2823 11.1963 65.7283 2.02113ZM88.0606 7.7685C86.3725 6.29944 84.6843 4.83038 81.2436 1.8536ZM88.0606 7.7685C85.5993 5.62935 83.1508 3.50307 81.2436 1.8536Z" stroke="#687077" stroke-width="1.6321" stroke-linecap="round"/>
<path d="M2.09473 2.5498C26.1667 2.5498 50.2387 2.5498 82.6224 2.5498M2.09473 2.5498C19.9039 2.5498 37.7001 2.5498 82.6224 2.5498M2.09473 2.5498C2.09473 22.5625 2.09473 39.2763 2.09473 55.9772M2.09473 2.5498C2.09473 29.998 2.09473 42.9876 2.09473 55.9772M82.6224 2.5498C82.6224 21.2481 82.6224 39.9464 82.6224 55.9772M82.6224 2.5498C82.6224 21.3254 82.6224 40.101 82.6224 55.9772M82.6224 55.9772C62.803 55.9772 42.9836 55.9772 2.09473 55.9772M82.6224 55.9772C57.9448 55.9772 33.28 55.9772 2.09473 55.9772" stroke="white" stroke-width="3.2642" stroke-linecap="round"/>
<path d="M3.25391 7.50293C14.5811 16.3173 25.9084 25.1445 42.8541 38.3403ZM3.25391 7.50293C16.5914 17.8894 29.9289 28.276 42.8541 38.3403Z" stroke="white" stroke-width="3.2642" stroke-linecap="round"/>
<path d="M44.3252 39.8078C55.5751 28.5837 66.8121 17.3725 82.0826 2.14062ZM44.3252 39.8078C58.7452 25.4265 73.1652 11.0323 82.0826 2.14062Z" stroke="white" stroke-width="3.2642" stroke-linecap="round"/>
</svg>
