<svg width="90" height="90" viewBox="0 0 90 90" fill="none" xmlns="http://www.w3.org/2000/svg">
<path d="M24.2689 7.8727C29.617 4.2543 38.0853 2.26868 44.7962 2.14415C51.5072 2.01962 58.661 4.09518 64.5417 7.13242C70.4225 10.1697 76.1164 15.0334 80.0669 20.3607C84.0105 25.6879 87.4144 32.4335 88.2308 39.096C89.0472 45.7586 87.2345 54.0193 84.9722 60.3429C82.7098 66.6733 79.5757 72.6509 74.6566 77.0581C69.7376 81.4582 62.1272 84.9936 55.4577 86.7717C48.7882 88.5428 41.0118 89.3039 34.6398 87.6988C28.2748 86.1006 22.0758 81.6796 17.2605 77.1549C12.4452 72.6233 8.21793 66.6457 5.7411 60.5297C3.25734 54.4137 1.76294 47.0939 2.38561 40.4728C3.00827 33.8449 5.17378 26.5943 9.46327 20.7965C13.7458 14.9988 24.0752 8.4331 28.1018 5.67952C32.1284 2.92595 33.2077 3.59704 33.6366 4.2889M48.5322 2.00578C55.1948 1.84665 63.7599 4.99459 69.3224 8.77211C74.8849 12.5496 78.7593 18.7486 81.9142 24.6778C85.069 30.6001 87.9956 37.7262 88.2585 44.3265C88.5145 50.9267 86.2244 58.5233 83.4639 64.2934C80.7034 70.0634 76.8706 75.2108 71.6955 78.9468C66.5204 82.6828 59.173 85.5817 52.4135 86.7094C45.661 87.8371 37.6771 87.6296 31.1598 85.7201C24.6495 83.8175 17.8347 80.1022 13.3307 75.2731C8.83368 70.4439 5.94865 63.2694 4.15675 56.7591C2.36485 50.2487 1.25097 42.6453 2.59316 36.2249C3.93536 29.7975 8.03805 23.2941 12.2099 18.2228C16.3887 13.1515 21.5915 8.39851 27.6452 5.7833C33.7058 3.17501 44.9277 2.96746 48.5738 2.54543C52.2198 2.13031 49.6254 2.67688 49.5423 3.27187" fill="white"/>
<path d="M24.2689 7.8727C29.617 4.2543 38.0853 2.26868 44.7962 2.14415C51.5072 2.01962 58.661 4.09518 64.5417 7.13242C70.4225 10.1697 76.1164 15.0334 80.0669 20.3607C84.0105 25.6879 87.4144 32.4335 88.2308 39.096C89.0472 45.7586 87.2345 54.0193 84.9722 60.3429C82.7098 66.6733 79.5757 72.6509 74.6566 77.0581C69.7376 81.4582 62.1272 84.9936 55.4577 86.7717C48.7882 88.5428 41.0118 89.3039 34.6398 87.6988C28.2748 86.1006 22.0758 81.6796 17.2605 77.1549C12.4452 72.6233 8.21793 66.6457 5.7411 60.5297C3.25734 54.4137 1.76294 47.0939 2.38561 40.4728C3.00827 33.8449 5.17378 26.5943 9.46327 20.7965C13.7458 14.9988 24.0752 8.4331 28.1018 5.67952C32.1284 2.92595 33.2077 3.59704 33.6366 4.2889M48.5322 2.00578C55.1948 1.84665 63.7599 4.99459 69.3224 8.77211C74.8849 12.5496 78.7593 18.7486 81.9142 24.6778C85.069 30.6001 87.9956 37.7262 88.2585 44.3265C88.5145 50.9267 86.2244 58.5233 83.4639 64.2934C80.7034 70.0634 76.8706 75.2108 71.6955 78.9468C66.5204 82.6828 59.173 85.5817 52.4135 86.7094C45.661 87.8371 37.6771 87.6296 31.1598 85.7201C24.6495 83.8175 17.8347 80.1022 13.3307 75.2731C8.83368 70.4439 5.94865 63.2694 4.15675 56.7591C2.36485 50.2487 1.25097 42.6453 2.59316 36.2249C3.93536 29.7975 8.03805 23.2941 12.2099 18.2228C16.3887 13.1515 21.5915 8.39851 27.6452 5.7833C33.7058 3.17501 44.9277 2.96746 48.5738 2.54543C52.2198 2.13031 49.6254 2.67688 49.5423 3.27187" stroke="#767676" stroke-width="2.76741" stroke-linecap="round"/>
</svg>